<mxfile host="drawio-plugin" modified="2022-02-11T06:14:38.637Z" agent="5.0 (Windows NT 6.2; Win64; x64) AppleWebKit/537.36 (KHTML, like Gecko) Chrome/89.0.4389.114 Safari/537.36" etag="VtkcOTD2W14-TGE-owjF" version="15.5.4" type="embed" pages="2"><diagram id="TVX21sVX0WDwAyLNo6e5" name="表设计"><mxGraphModel dx="1003" dy="838" grid="1" gridSize="10" guides="1" tooltips="1" connect="1" arrows="1" fold="1" page="1" pageScale="1" pageWidth="827" pageHeight="1169" math="0" shadow="0"><root><mxCell id="0"/><mxCell id="1" parent="0"/><mxCell id="1796EEAHaFCPbBEa1wXh-1" value="&lt;map version=&quot;1.0.1&quot;&gt; &#10;&lt;!-- &#10;Generated by NB Mind Map Plugin (https://github.com/raydac/netbeans-mmd-plugin) &#10;2020-09-06 19:11:33.323 &#10;--&gt; &#10; &lt;node CREATED=&quot;1599390693323&quot; MODIFIED=&quot;1599390693324&quot; COLOR=&quot;#000000&quot; BACKGROUND_COLOR=&quot;#00FFFF&quot;   ID=&quot;mmlink65&quot; TEXT=&quot;SpringCloud&quot; &gt; &#10;  &lt;edge WIDTH=&quot;thin&quot;/&gt;  &lt;node CREATED=&quot;1599390693329&quot; MODIFIED=&quot;1599390693329&quot; COLOR=&quot;#000000&quot; BACKGROUND_COLOR=&quot;#00FFFF&quot; POSITION=&quot;right&quot; ID=&quot;mmlink6565&quot; TEXT=&quot;&amp;#26381;&amp;#21153;&amp;#27835;&amp;#29702;&quot; &gt; &#10;   &lt;edge WIDTH=&quot;thin&quot;/&gt;   &lt;node CREATED=&quot;1599390693329&quot; MODIFIED=&quot;1599390693329&quot; COLOR=&quot;#000000&quot; BACKGROUND_COLOR=&quot;#00FFFF&quot;   ID=&quot;mmlink656565&quot; TEXT=&quot;Eureka&quot; &gt; &#10;    &lt;edge WIDTH=&quot;thin&quot;/&gt;    &lt;node CREATED=&quot;1599390693329&quot; MODIFIED=&quot;1599390693329&quot; COLOR=&quot;#000000&quot; BACKGROUND_COLOR=&quot;#00FFFF&quot;   ID=&quot;mmlink65656565&quot; TEXT=&quot;POM&quot; &gt; &#10;     &lt;edge WIDTH=&quot;thin&quot;/&gt;    &lt;/node&gt; &#10;    &lt;node CREATED=&quot;1599390693329&quot; MODIFIED=&quot;1599390693329&quot; COLOR=&quot;#000000&quot; BACKGROUND_COLOR=&quot;#00FFFF&quot;   ID=&quot;mmlink65656566&quot; TEXT=&quot;YML&quot; &gt; &#10;     &lt;edge WIDTH=&quot;thin&quot;/&gt;    &lt;/node&gt; &#10;   &lt;/node&gt; &#10;   &lt;node CREATED=&quot;1599390693329&quot; MODIFIED=&quot;1599390693329&quot; COLOR=&quot;#000000&quot; BACKGROUND_COLOR=&quot;#00FFFF&quot;   ID=&quot;mmlink656566&quot; TEXT=&quot;Zookeeper&quot; &gt; &#10;    &lt;edge WIDTH=&quot;thin&quot;/&gt;   &lt;/node&gt; &#10;   &lt;node CREATED=&quot;1599390693329&quot; MODIFIED=&quot;1599390693329&quot; COLOR=&quot;#000000&quot; BACKGROUND_COLOR=&quot;#00FFFF&quot;   ID=&quot;mmlink656567&quot; TEXT=&quot;Consul&quot; &gt; &#10;    &lt;edge WIDTH=&quot;thin&quot;/&gt;   &lt;/node&gt; &#10;  &lt;/node&gt; &#10;  &lt;node CREATED=&quot;1599390693329&quot; MODIFIED=&quot;1599390693329&quot; COLOR=&quot;#000000&quot; BACKGROUND_COLOR=&quot;#00FFFF&quot; POSITION=&quot;right&quot; ID=&quot;mmlink6566&quot; TEXT=&quot;&amp;#36127;&amp;#36733;&amp;#22343;&amp;#34913;&quot; &gt; &#10;   &lt;edge WIDTH=&quot;thin&quot;/&gt;  &lt;/node&gt; &#10;  &lt;node CREATED=&quot;1599390693329&quot; MODIFIED=&quot;1599390693329&quot; COLOR=&quot;#000000&quot; BACKGROUND_COLOR=&quot;#00FFFF&quot; POSITION=&quot;right&quot; ID=&quot;mmlink6567&quot; TEXT=&quot;&amp;#26381;&amp;#21153;&amp;#29076;&amp;#26029;&quot; &gt; &#10;   &lt;edge WIDTH=&quot;thin&quot;/&gt;  &lt;/node&gt; &#10;  &lt;node CREATED=&quot;1599390693329&quot; MODIFIED=&quot;1599390693329&quot; COLOR=&quot;#000000&quot; BACKGROUND_COLOR=&quot;#00FFFF&quot; POSITION=&quot;right&quot; ID=&quot;mmlink6568&quot; TEXT=&quot;&amp;#32593;&amp;#20851;&quot; &gt; &#10;   &lt;edge WIDTH=&quot;thin&quot;/&gt;  &lt;/node&gt; &#10; &lt;/node&gt; &#10;&lt;/map&gt;" style="text;whiteSpace=wrap;html=1;" parent="1" vertex="1"><mxGeometry width="30" height="310" as="geometry"/></mxCell><mxCell id="kQaS527iCov22ewZqlWK-1" value="my_account" style="shape=table;startSize=30;container=1;collapsible=1;childLayout=tableLayout;fixedRows=1;rowLines=0;fontStyle=1;align=center;resizeLast=1;" parent="1" vertex="1"><mxGeometry x="90" y="80" width="270" height="270" as="geometry"/></mxCell><mxCell id="kQaS527iCov22ewZqlWK-2" value="" style="shape=partialRectangle;collapsible=0;dropTarget=0;pointerEvents=0;fillColor=none;top=0;left=0;bottom=1;right=0;points=[[0,0.5],[1,0.5]];portConstraint=eastwest;" parent="kQaS527iCov22ewZqlWK-1" vertex="1"><mxGeometry y="30" width="270" height="30" as="geometry"/></mxCell><mxCell id="kQaS527iCov22ewZqlWK-3" value="PK" style="shape=partialRectangle;connectable=0;fillColor=none;top=0;left=0;bottom=0;right=0;fontStyle=1;overflow=hidden;" parent="kQaS527iCov22ewZqlWK-2" vertex="1"><mxGeometry width="30" height="30" as="geometry"><mxRectangle width="30" height="30" as="alternateBounds"/></mxGeometry></mxCell><mxCell id="kQaS527iCov22ewZqlWK-4" value="id" style="shape=partialRectangle;connectable=0;fillColor=none;top=0;left=0;bottom=0;right=0;align=left;spacingLeft=6;fontStyle=5;overflow=hidden;" parent="kQaS527iCov22ewZqlWK-2" vertex="1"><mxGeometry x="30" width="240" height="30" as="geometry"><mxRectangle width="240" height="30" as="alternateBounds"/></mxGeometry></mxCell><mxCell id="kQaS527iCov22ewZqlWK-26" style="shape=partialRectangle;collapsible=0;dropTarget=0;pointerEvents=0;fillColor=none;top=0;left=0;bottom=0;right=0;points=[[0,0.5],[1,0.5]];portConstraint=eastwest;" parent="kQaS527iCov22ewZqlWK-1" vertex="1"><mxGeometry y="60" width="270" height="30" as="geometry"/></mxCell><mxCell id="kQaS527iCov22ewZqlWK-27" style="shape=partialRectangle;connectable=0;fillColor=none;top=0;left=0;bottom=0;right=0;editable=1;overflow=hidden;" parent="kQaS527iCov22ewZqlWK-26" vertex="1"><mxGeometry width="30" height="30" as="geometry"><mxRectangle width="30" height="30" as="alternateBounds"/></mxGeometry></mxCell><mxCell id="kQaS527iCov22ewZqlWK-28" value="app_name  应用名称" style="shape=partialRectangle;connectable=0;fillColor=none;top=0;left=0;bottom=0;right=0;align=left;spacingLeft=6;overflow=hidden;" parent="kQaS527iCov22ewZqlWK-26" vertex="1"><mxGeometry x="30" width="240" height="30" as="geometry"><mxRectangle width="240" height="30" as="alternateBounds"/></mxGeometry></mxCell><mxCell id="kQaS527iCov22ewZqlWK-5" value="" style="shape=partialRectangle;collapsible=0;dropTarget=0;pointerEvents=0;fillColor=none;top=0;left=0;bottom=0;right=0;points=[[0,0.5],[1,0.5]];portConstraint=eastwest;" parent="kQaS527iCov22ewZqlWK-1" vertex="1"><mxGeometry y="90" width="270" height="30" as="geometry"/></mxCell><mxCell id="kQaS527iCov22ewZqlWK-6" value="" style="shape=partialRectangle;connectable=0;fillColor=none;top=0;left=0;bottom=0;right=0;editable=1;overflow=hidden;" parent="kQaS527iCov22ewZqlWK-5" vertex="1"><mxGeometry width="30" height="30" as="geometry"><mxRectangle width="30" height="30" as="alternateBounds"/></mxGeometry></mxCell><mxCell id="kQaS527iCov22ewZqlWK-7" value="app_url  应用网址" style="shape=partialRectangle;connectable=0;fillColor=none;top=0;left=0;bottom=0;right=0;align=left;spacingLeft=6;overflow=hidden;" parent="kQaS527iCov22ewZqlWK-5" vertex="1"><mxGeometry x="30" width="240" height="30" as="geometry"><mxRectangle width="240" height="30" as="alternateBounds"/></mxGeometry></mxCell><mxCell id="kQaS527iCov22ewZqlWK-8" value="" style="shape=partialRectangle;collapsible=0;dropTarget=0;pointerEvents=0;fillColor=none;top=0;left=0;bottom=0;right=0;points=[[0,0.5],[1,0.5]];portConstraint=eastwest;" parent="kQaS527iCov22ewZqlWK-1" vertex="1"><mxGeometry y="120" width="270" height="30" as="geometry"/></mxCell><mxCell id="kQaS527iCov22ewZqlWK-9" value="" style="shape=partialRectangle;connectable=0;fillColor=none;top=0;left=0;bottom=0;right=0;editable=1;overflow=hidden;" parent="kQaS527iCov22ewZqlWK-8" vertex="1"><mxGeometry width="30" height="30" as="geometry"><mxRectangle width="30" height="30" as="alternateBounds"/></mxGeometry></mxCell><mxCell id="kQaS527iCov22ewZqlWK-10" value="my_username  加密用户名" style="shape=partialRectangle;connectable=0;fillColor=none;top=0;left=0;bottom=0;right=0;align=left;spacingLeft=6;overflow=hidden;" parent="kQaS527iCov22ewZqlWK-8" vertex="1"><mxGeometry x="30" width="240" height="30" as="geometry"><mxRectangle width="240" height="30" as="alternateBounds"/></mxGeometry></mxCell><mxCell id="kQaS527iCov22ewZqlWK-11" value="" style="shape=partialRectangle;collapsible=0;dropTarget=0;pointerEvents=0;fillColor=none;top=0;left=0;bottom=0;right=0;points=[[0,0.5],[1,0.5]];portConstraint=eastwest;" parent="kQaS527iCov22ewZqlWK-1" vertex="1"><mxGeometry y="150" width="270" height="30" as="geometry"/></mxCell><mxCell id="kQaS527iCov22ewZqlWK-12" value="" style="shape=partialRectangle;connectable=0;fillColor=none;top=0;left=0;bottom=0;right=0;editable=1;overflow=hidden;" parent="kQaS527iCov22ewZqlWK-11" vertex="1"><mxGeometry width="30" height="30" as="geometry"><mxRectangle width="30" height="30" as="alternateBounds"/></mxGeometry></mxCell><mxCell id="kQaS527iCov22ewZqlWK-13" value="my_password  加密密码" style="shape=partialRectangle;connectable=0;fillColor=none;top=0;left=0;bottom=0;right=0;align=left;spacingLeft=6;overflow=hidden;" parent="kQaS527iCov22ewZqlWK-11" vertex="1"><mxGeometry x="30" width="240" height="30" as="geometry"><mxRectangle width="240" height="30" as="alternateBounds"/></mxGeometry></mxCell><mxCell id="kQaS527iCov22ewZqlWK-14" style="shape=partialRectangle;collapsible=0;dropTarget=0;pointerEvents=0;fillColor=none;top=0;left=0;bottom=0;right=0;points=[[0,0.5],[1,0.5]];portConstraint=eastwest;" parent="kQaS527iCov22ewZqlWK-1" vertex="1"><mxGeometry y="180" width="270" height="30" as="geometry"/></mxCell><mxCell id="kQaS527iCov22ewZqlWK-15" style="shape=partialRectangle;connectable=0;fillColor=none;top=0;left=0;bottom=0;right=0;editable=1;overflow=hidden;" parent="kQaS527iCov22ewZqlWK-14" vertex="1"><mxGeometry width="30" height="30" as="geometry"><mxRectangle width="30" height="30" as="alternateBounds"/></mxGeometry></mxCell><mxCell id="kQaS527iCov22ewZqlWK-16" value="remark  备注" style="shape=partialRectangle;connectable=0;fillColor=none;top=0;left=0;bottom=0;right=0;align=left;spacingLeft=6;overflow=hidden;" parent="kQaS527iCov22ewZqlWK-14" vertex="1"><mxGeometry x="30" width="240" height="30" as="geometry"><mxRectangle width="240" height="30" as="alternateBounds"/></mxGeometry></mxCell><mxCell id="kQaS527iCov22ewZqlWK-17" style="shape=partialRectangle;collapsible=0;dropTarget=0;pointerEvents=0;fillColor=none;top=0;left=0;bottom=0;right=0;points=[[0,0.5],[1,0.5]];portConstraint=eastwest;" parent="kQaS527iCov22ewZqlWK-1" vertex="1"><mxGeometry y="210" width="270" height="30" as="geometry"/></mxCell><mxCell id="kQaS527iCov22ewZqlWK-18" style="shape=partialRectangle;connectable=0;fillColor=none;top=0;left=0;bottom=0;right=0;editable=1;overflow=hidden;" parent="kQaS527iCov22ewZqlWK-17" vertex="1"><mxGeometry width="30" height="30" as="geometry"><mxRectangle width="30" height="30" as="alternateBounds"/></mxGeometry></mxCell><mxCell id="kQaS527iCov22ewZqlWK-19" value="create_time 创建时间" style="shape=partialRectangle;connectable=0;fillColor=none;top=0;left=0;bottom=0;right=0;align=left;spacingLeft=6;overflow=hidden;" parent="kQaS527iCov22ewZqlWK-17" vertex="1"><mxGeometry x="30" width="240" height="30" as="geometry"><mxRectangle width="240" height="30" as="alternateBounds"/></mxGeometry></mxCell><mxCell id="kQaS527iCov22ewZqlWK-20" style="shape=partialRectangle;collapsible=0;dropTarget=0;pointerEvents=0;fillColor=none;top=0;left=0;bottom=0;right=0;points=[[0,0.5],[1,0.5]];portConstraint=eastwest;" parent="kQaS527iCov22ewZqlWK-1" vertex="1"><mxGeometry y="240" width="270" height="30" as="geometry"/></mxCell><mxCell id="kQaS527iCov22ewZqlWK-21" style="shape=partialRectangle;connectable=0;fillColor=none;top=0;left=0;bottom=0;right=0;editable=1;overflow=hidden;" parent="kQaS527iCov22ewZqlWK-20" vertex="1"><mxGeometry width="30" height="30" as="geometry"><mxRectangle width="30" height="30" as="alternateBounds"/></mxGeometry></mxCell><mxCell id="kQaS527iCov22ewZqlWK-22" value="update_time 更新时间" style="shape=partialRectangle;connectable=0;fillColor=none;top=0;left=0;bottom=0;right=0;align=left;spacingLeft=6;overflow=hidden;" parent="kQaS527iCov22ewZqlWK-20" vertex="1"><mxGeometry x="30" width="240" height="30" as="geometry"><mxRectangle width="240" height="30" as="alternateBounds"/></mxGeometry></mxCell></root></mxGraphModel></diagram><diagram id="OcgWifocVJ4YbS7SpMjv" name="流程图"><mxGraphModel dx="1429" dy="503" grid="1" gridSize="10" guides="1" tooltips="1" connect="1" arrows="1" fold="1" page="1" pageScale="1" pageWidth="827" pageHeight="1169" math="0" shadow="0"><root><mxCell id="nLPJrIclQXHNpDVG5_ci-0"/><mxCell id="nLPJrIclQXHNpDVG5_ci-1" parent="nLPJrIclQXHNpDVG5_ci-0"/><mxCell id="nLPJrIclQXHNpDVG5_ci-4" value="" style="edgeStyle=orthogonalEdgeStyle;rounded=0;orthogonalLoop=1;jettySize=auto;html=1;fontSize=12;" parent="nLPJrIclQXHNpDVG5_ci-1" source="nLPJrIclQXHNpDVG5_ci-2" target="nLPJrIclQXHNpDVG5_ci-3" edge="1"><mxGeometry relative="1" as="geometry"/></mxCell><mxCell id="nLPJrIclQXHNpDVG5_ci-2" value="开始" style="strokeWidth=2;html=1;shape=mxgraph.flowchart.start_2;whiteSpace=wrap;fontSize=12;" parent="nLPJrIclQXHNpDVG5_ci-1" vertex="1"><mxGeometry x="-295" y="150" width="90" height="50" as="geometry"/></mxCell><mxCell id="nLPJrIclQXHNpDVG5_ci-6" value="" style="edgeStyle=orthogonalEdgeStyle;rounded=0;orthogonalLoop=1;jettySize=auto;html=1;fontSize=12;" parent="nLPJrIclQXHNpDVG5_ci-1" source="nLPJrIclQXHNpDVG5_ci-3" target="nLPJrIclQXHNpDVG5_ci-9" edge="1"><mxGeometry relative="1" as="geometry"/></mxCell><mxCell id="nLPJrIclQXHNpDVG5_ci-3" value="输入要存储的数据" style="whiteSpace=wrap;html=1;strokeWidth=2;fontSize=12;" parent="nLPJrIclQXHNpDVG5_ci-1" vertex="1"><mxGeometry x="-310" y="240" width="120" height="50" as="geometry"/></mxCell><mxCell id="nLPJrIclQXHNpDVG5_ci-8" value="" style="edgeStyle=orthogonalEdgeStyle;rounded=0;orthogonalLoop=1;jettySize=auto;html=1;fontSize=12;" parent="nLPJrIclQXHNpDVG5_ci-1" source="nLPJrIclQXHNpDVG5_ci-5" target="7S0t2VQkdnMPl0QgdL5P-5" edge="1"><mxGeometry relative="1" as="geometry"/></mxCell><mxCell id="nLPJrIclQXHNpDVG5_ci-5" value="加密用户名、密码" style="whiteSpace=wrap;html=1;strokeWidth=2;fontSize=12;" parent="nLPJrIclQXHNpDVG5_ci-1" vertex="1"><mxGeometry x="-310" y="450" width="120" height="50" as="geometry"/></mxCell><mxCell id="7S0t2VQkdnMPl0QgdL5P-15" value="" style="edgeStyle=orthogonalEdgeStyle;rounded=0;orthogonalLoop=1;jettySize=auto;html=1;fontSize=12;" parent="nLPJrIclQXHNpDVG5_ci-1" source="nLPJrIclQXHNpDVG5_ci-7" target="7S0t2VQkdnMPl0QgdL5P-12" edge="1"><mxGeometry relative="1" as="geometry"/></mxCell><mxCell id="nLPJrIclQXHNpDVG5_ci-7" value="密文存储到数据库" style="whiteSpace=wrap;html=1;strokeWidth=2;fontSize=12;" parent="nLPJrIclQXHNpDVG5_ci-1" vertex="1"><mxGeometry x="-310" y="660" width="120" height="60" as="geometry"/></mxCell><mxCell id="7S0t2VQkdnMPl0QgdL5P-1" value="" style="edgeStyle=orthogonalEdgeStyle;rounded=0;orthogonalLoop=1;jettySize=auto;html=1;entryX=0.5;entryY=0;entryDx=0;entryDy=0;fontSize=12;" parent="nLPJrIclQXHNpDVG5_ci-1" source="nLPJrIclQXHNpDVG5_ci-9" target="mpOlBs6VJ9RwbqKoxwbX-0" edge="1"><mxGeometry relative="1" as="geometry"><mxPoint x="-390" y="370" as="targetPoint"/></mxGeometry></mxCell><mxCell id="7S0t2VQkdnMPl0QgdL5P-2" value="否" style="edgeLabel;html=1;align=center;verticalAlign=middle;resizable=0;points=[];fontSize=12;" parent="7S0t2VQkdnMPl0QgdL5P-1" vertex="1" connectable="0"><mxGeometry x="-0.1744" relative="1" as="geometry"><mxPoint as="offset"/></mxGeometry></mxCell><mxCell id="7S0t2VQkdnMPl0QgdL5P-3" value="" style="edgeStyle=orthogonalEdgeStyle;rounded=0;orthogonalLoop=1;jettySize=auto;html=1;fontSize=12;" parent="nLPJrIclQXHNpDVG5_ci-1" source="nLPJrIclQXHNpDVG5_ci-9" target="nLPJrIclQXHNpDVG5_ci-5" edge="1"><mxGeometry relative="1" as="geometry"/></mxCell><mxCell id="7S0t2VQkdnMPl0QgdL5P-4" value="是" style="edgeLabel;html=1;align=center;verticalAlign=middle;resizable=0;points=[];fontSize=12;" parent="7S0t2VQkdnMPl0QgdL5P-3" vertex="1" connectable="0"><mxGeometry x="-0.3418" relative="1" as="geometry"><mxPoint as="offset"/></mxGeometry></mxCell><mxCell id="nLPJrIclQXHNpDVG5_ci-9" value="参数是否合法" style="strokeWidth=2;html=1;shape=mxgraph.flowchart.decision;whiteSpace=wrap;fontSize=12;" parent="nLPJrIclQXHNpDVG5_ci-1" vertex="1"><mxGeometry x="-330" y="340" width="160" height="60" as="geometry"/></mxCell><mxCell id="7S0t2VQkdnMPl0QgdL5P-6" value="" style="edgeStyle=orthogonalEdgeStyle;rounded=0;orthogonalLoop=1;jettySize=auto;html=1;fontSize=12;" parent="nLPJrIclQXHNpDVG5_ci-1" source="7S0t2VQkdnMPl0QgdL5P-5" target="nLPJrIclQXHNpDVG5_ci-7" edge="1"><mxGeometry relative="1" as="geometry"><Array as="points"><mxPoint x="-250" y="680"/><mxPoint x="-250" y="680"/></Array></mxGeometry></mxCell><mxCell id="7S0t2VQkdnMPl0QgdL5P-7" value="是" style="edgeLabel;html=1;align=center;verticalAlign=middle;resizable=0;points=[];fontSize=12;" parent="7S0t2VQkdnMPl0QgdL5P-6" vertex="1" connectable="0"><mxGeometry x="-0.24" relative="1" as="geometry"><mxPoint as="offset"/></mxGeometry></mxCell><mxCell id="7S0t2VQkdnMPl0QgdL5P-9" value="" style="edgeStyle=orthogonalEdgeStyle;rounded=0;orthogonalLoop=1;jettySize=auto;html=1;entryX=0.5;entryY=0;entryDx=0;entryDy=0;fontSize=12;" parent="nLPJrIclQXHNpDVG5_ci-1" source="7S0t2VQkdnMPl0QgdL5P-5" target="mpOlBs6VJ9RwbqKoxwbX-0" edge="1"><mxGeometry relative="1" as="geometry"><mxPoint x="-395" y="570" as="targetPoint"/></mxGeometry></mxCell><mxCell id="7S0t2VQkdnMPl0QgdL5P-10" value="否" style="edgeLabel;html=1;align=center;verticalAlign=middle;resizable=0;points=[];fontSize=12;" parent="7S0t2VQkdnMPl0QgdL5P-9" vertex="1" connectable="0"><mxGeometry x="-0.2844" y="2" relative="1" as="geometry"><mxPoint as="offset"/></mxGeometry></mxCell><mxCell id="7S0t2VQkdnMPl0QgdL5P-5" value="加密是否成功" style="strokeWidth=2;html=1;shape=mxgraph.flowchart.decision;whiteSpace=wrap;fontSize=12;" parent="nLPJrIclQXHNpDVG5_ci-1" vertex="1"><mxGeometry x="-320" y="540" width="140" height="60" as="geometry"/></mxCell><mxCell id="7S0t2VQkdnMPl0QgdL5P-31" value="" style="edgeStyle=orthogonalEdgeStyle;rounded=0;orthogonalLoop=1;jettySize=auto;html=1;entryX=0.5;entryY=0;entryDx=0;entryDy=0;fontSize=12;" parent="nLPJrIclQXHNpDVG5_ci-1" source="7S0t2VQkdnMPl0QgdL5P-12" target="mpOlBs6VJ9RwbqKoxwbX-0" edge="1"><mxGeometry relative="1" as="geometry"><Array as="points"/><mxPoint x="-390.00000000000273" y="795" as="targetPoint"/></mxGeometry></mxCell><mxCell id="7S0t2VQkdnMPl0QgdL5P-32" value="否" style="edgeLabel;html=1;align=center;verticalAlign=middle;resizable=0;points=[];fontSize=12;" parent="7S0t2VQkdnMPl0QgdL5P-31" vertex="1" connectable="0"><mxGeometry x="-0.2297" relative="1" as="geometry"><mxPoint as="offset"/></mxGeometry></mxCell><mxCell id="mpOlBs6VJ9RwbqKoxwbX-6" value="" style="edgeStyle=orthogonalEdgeStyle;rounded=0;orthogonalLoop=1;jettySize=auto;html=1;fontSize=12;" parent="nLPJrIclQXHNpDVG5_ci-1" source="7S0t2VQkdnMPl0QgdL5P-12" target="7S0t2VQkdnMPl0QgdL5P-23" edge="1"><mxGeometry relative="1" as="geometry"/></mxCell><mxCell id="mpOlBs6VJ9RwbqKoxwbX-7" value="是" style="edgeLabel;html=1;align=center;verticalAlign=middle;resizable=0;points=[];fontSize=12;" parent="mpOlBs6VJ9RwbqKoxwbX-6" vertex="1" connectable="0"><mxGeometry x="-0.2306" y="-2" relative="1" as="geometry"><mxPoint as="offset"/></mxGeometry></mxCell><mxCell id="7S0t2VQkdnMPl0QgdL5P-12" value="存储是否成功" style="strokeWidth=2;html=1;shape=mxgraph.flowchart.decision;whiteSpace=wrap;align=center;fontSize=12;" parent="nLPJrIclQXHNpDVG5_ci-1" vertex="1"><mxGeometry x="-312.5" y="760" width="125" height="70" as="geometry"/></mxCell><mxCell id="7S0t2VQkdnMPl0QgdL5P-13" value="h2database" style="strokeWidth=2;html=1;shape=mxgraph.flowchart.database;whiteSpace=wrap;align=center;fontSize=12;" parent="nLPJrIclQXHNpDVG5_ci-1" vertex="1"><mxGeometry x="-65" y="642.5" width="100" height="95" as="geometry"/></mxCell><mxCell id="7S0t2VQkdnMPl0QgdL5P-14" value="" style="shape=flexArrow;endArrow=classic;startArrow=classic;html=1;exitX=1;exitY=0.5;exitDx=0;exitDy=0;entryX=0;entryY=0.5;entryDx=0;entryDy=0;entryPerimeter=0;fontSize=12;" parent="nLPJrIclQXHNpDVG5_ci-1" source="nLPJrIclQXHNpDVG5_ci-7" target="7S0t2VQkdnMPl0QgdL5P-13" edge="1"><mxGeometry width="50" height="50" relative="1" as="geometry"><mxPoint x="-85" y="870" as="sourcePoint"/><mxPoint x="-35" y="820" as="targetPoint"/></mxGeometry></mxCell><mxCell id="7S0t2VQkdnMPl0QgdL5P-23" value="结束" style="ellipse;whiteSpace=wrap;html=1;strokeWidth=2;fontSize=12;" parent="nLPJrIclQXHNpDVG5_ci-1" vertex="1"><mxGeometry x="-297.5" y="970" width="95" height="50" as="geometry"/></mxCell><mxCell id="X9A47jIY01CoQeWD7n1c-2" value="" style="edgeStyle=orthogonalEdgeStyle;rounded=0;orthogonalLoop=1;jettySize=auto;html=1;fontSize=12;" parent="nLPJrIclQXHNpDVG5_ci-1" source="7S0t2VQkdnMPl0QgdL5P-41" target="X9A47jIY01CoQeWD7n1c-1" edge="1"><mxGeometry relative="1" as="geometry"/></mxCell><mxCell id="7S0t2VQkdnMPl0QgdL5P-41" value="开始" style="strokeWidth=2;html=1;shape=mxgraph.flowchart.start_2;whiteSpace=wrap;align=center;fontSize=12;" parent="nLPJrIclQXHNpDVG5_ci-1" vertex="1"><mxGeometry x="150" y="150" width="90" height="60" as="geometry"/></mxCell><mxCell id="mpOlBs6VJ9RwbqKoxwbX-14" value="" style="edgeStyle=orthogonalEdgeStyle;rounded=0;orthogonalLoop=1;jettySize=auto;html=1;fontSize=12;" parent="nLPJrIclQXHNpDVG5_ci-1" source="7S0t2VQkdnMPl0QgdL5P-51" target="UbfOC4Su_2b7W0Y7jP53-0" edge="1"><mxGeometry relative="1" as="geometry"/></mxCell><mxCell id="7S0t2VQkdnMPl0QgdL5P-51" value="查询数据库" style="whiteSpace=wrap;html=1;strokeWidth=2;fontSize=12;" parent="nLPJrIclQXHNpDVG5_ci-1" vertex="1"><mxGeometry x="135" y="660" width="120" height="60" as="geometry"/></mxCell><mxCell id="7S0t2VQkdnMPl0QgdL5P-54" value="" style="shape=flexArrow;endArrow=classic;startArrow=classic;html=1;entryX=0;entryY=0.5;entryDx=0;entryDy=0;exitX=1;exitY=0.5;exitDx=0;exitDy=0;exitPerimeter=0;fontSize=12;" parent="nLPJrIclQXHNpDVG5_ci-1" source="7S0t2VQkdnMPl0QgdL5P-13" target="7S0t2VQkdnMPl0QgdL5P-51" edge="1"><mxGeometry width="50" height="50" relative="1" as="geometry"><mxPoint x="145" y="740" as="sourcePoint"/><mxPoint x="220" y="769.29" as="targetPoint"/></mxGeometry></mxCell><mxCell id="mpOlBs6VJ9RwbqKoxwbX-16" value="" style="edgeStyle=orthogonalEdgeStyle;rounded=0;orthogonalLoop=1;jettySize=auto;html=1;fontSize=12;" parent="nLPJrIclQXHNpDVG5_ci-1" source="UbfOC4Su_2b7W0Y7jP53-0" target="mpOlBs6VJ9RwbqKoxwbX-13" edge="1"><mxGeometry relative="1" as="geometry"/></mxCell><mxCell id="mpOlBs6VJ9RwbqKoxwbX-22" value="否" style="edgeLabel;html=1;align=center;verticalAlign=middle;resizable=0;points=[];fontSize=12;" parent="mpOlBs6VJ9RwbqKoxwbX-16" vertex="1" connectable="0"><mxGeometry x="-0.2905" y="-1" relative="1" as="geometry"><mxPoint as="offset"/></mxGeometry></mxCell><mxCell id="mpOlBs6VJ9RwbqKoxwbX-18" value="" style="edgeStyle=orthogonalEdgeStyle;rounded=0;orthogonalLoop=1;jettySize=auto;html=1;fontSize=12;" parent="nLPJrIclQXHNpDVG5_ci-1" source="UbfOC4Su_2b7W0Y7jP53-0" target="mpOlBs6VJ9RwbqKoxwbX-17" edge="1"><mxGeometry relative="1" as="geometry"/></mxCell><mxCell id="mpOlBs6VJ9RwbqKoxwbX-21" value="是" style="edgeLabel;html=1;align=center;verticalAlign=middle;resizable=0;points=[];fontSize=12;" parent="mpOlBs6VJ9RwbqKoxwbX-18" vertex="1" connectable="0"><mxGeometry x="-0.0987" y="-1" relative="1" as="geometry"><mxPoint as="offset"/></mxGeometry></mxCell><mxCell id="UbfOC4Su_2b7W0Y7jP53-0" value="是否需要解密" style="rhombus;whiteSpace=wrap;html=1;strokeWidth=2;fontSize=12;" parent="nLPJrIclQXHNpDVG5_ci-1" vertex="1"><mxGeometry x="140.94" y="770" width="108.12" height="50" as="geometry"/></mxCell><mxCell id="X9A47jIY01CoQeWD7n1c-3" style="edgeStyle=orthogonalEdgeStyle;rounded=0;orthogonalLoop=1;jettySize=auto;html=1;fontSize=12;" parent="nLPJrIclQXHNpDVG5_ci-1" source="X9A47jIY01CoQeWD7n1c-1" target="7S0t2VQkdnMPl0QgdL5P-51" edge="1"><mxGeometry relative="1" as="geometry"/></mxCell><mxCell id="X9A47jIY01CoQeWD7n1c-1" value="查询条件" style="whiteSpace=wrap;html=1;strokeWidth=2;verticalAlign=middle;align=center;fontSize=12;" parent="nLPJrIclQXHNpDVG5_ci-1" vertex="1"><mxGeometry x="155" y="330" width="77.5" height="40" as="geometry"/></mxCell><mxCell id="mpOlBs6VJ9RwbqKoxwbX-3" value="" style="edgeStyle=orthogonalEdgeStyle;rounded=0;orthogonalLoop=1;jettySize=auto;html=1;fontSize=12;" parent="nLPJrIclQXHNpDVG5_ci-1" source="mpOlBs6VJ9RwbqKoxwbX-0" target="7S0t2VQkdnMPl0QgdL5P-23" edge="1"><mxGeometry relative="1" as="geometry"><mxPoint x="-450" y="1020" as="targetPoint"/></mxGeometry></mxCell><mxCell id="mpOlBs6VJ9RwbqKoxwbX-0" value="提示信息" style="whiteSpace=wrap;html=1;strokeWidth=2;fontSize=12;" parent="nLPJrIclQXHNpDVG5_ci-1" vertex="1"><mxGeometry x="-510" y="880" width="120" height="60" as="geometry"/></mxCell><mxCell id="mpOlBs6VJ9RwbqKoxwbX-8" value="存储流程" style="strokeWidth=2;html=1;shape=mxgraph.flowchart.document2;whiteSpace=wrap;size=0.25;fontSize=12;" parent="nLPJrIclQXHNpDVG5_ci-1" vertex="1"><mxGeometry x="-305" y="40" width="100" height="60" as="geometry"/></mxCell><mxCell id="mpOlBs6VJ9RwbqKoxwbX-9" value="读取流程" style="strokeWidth=2;html=1;shape=mxgraph.flowchart.document2;whiteSpace=wrap;size=0.25;fontSize=12;" parent="nLPJrIclQXHNpDVG5_ci-1" vertex="1"><mxGeometry x="140.94" y="40" width="100" height="60" as="geometry"/></mxCell><mxCell id="mpOlBs6VJ9RwbqKoxwbX-11" value="结束" style="ellipse;whiteSpace=wrap;html=1;strokeWidth=2;fontSize=12;" parent="nLPJrIclQXHNpDVG5_ci-1" vertex="1"><mxGeometry x="155" y="1060" width="80" height="50" as="geometry"/></mxCell><mxCell id="mpOlBs6VJ9RwbqKoxwbX-15" value="" style="edgeStyle=orthogonalEdgeStyle;rounded=0;orthogonalLoop=1;jettySize=auto;html=1;fontSize=12;" parent="nLPJrIclQXHNpDVG5_ci-1" source="mpOlBs6VJ9RwbqKoxwbX-13" target="mpOlBs6VJ9RwbqKoxwbX-11" edge="1"><mxGeometry relative="1" as="geometry"/></mxCell><mxCell id="mpOlBs6VJ9RwbqKoxwbX-13" value="返回数据" style="whiteSpace=wrap;html=1;strokeWidth=2;fontSize=12;" parent="nLPJrIclQXHNpDVG5_ci-1" vertex="1"><mxGeometry x="135" y="960" width="120" height="60" as="geometry"/></mxCell><mxCell id="mpOlBs6VJ9RwbqKoxwbX-20" value="" style="edgeStyle=orthogonalEdgeStyle;rounded=0;orthogonalLoop=1;jettySize=auto;html=1;fontSize=12;entryX=0.5;entryY=0;entryDx=0;entryDy=0;" parent="nLPJrIclQXHNpDVG5_ci-1" source="mpOlBs6VJ9RwbqKoxwbX-17" target="mpOlBs6VJ9RwbqKoxwbX-13" edge="1"><mxGeometry relative="1" as="geometry"><mxPoint x="360.0050000000001" y="1010" as="targetPoint"/></mxGeometry></mxCell><mxCell id="mpOlBs6VJ9RwbqKoxwbX-17" value="解密" style="whiteSpace=wrap;html=1;strokeWidth=2;fontSize=12;" parent="nLPJrIclQXHNpDVG5_ci-1" vertex="1"><mxGeometry x="270.005" y="870" width="120" height="60" as="geometry"/></mxCell></root></mxGraphModel></diagram></mxfile>